<?xml version="1.0" encoding="UTF-8" standalone="no"?>
<svg
   xmlns:dc="http://purl.org/dc/elements/1.1/"
   xmlns:cc="http://creativecommons.org/ns#"
   xmlns:rdf="http://www.w3.org/1999/02/22-rdf-syntax-ns#"
   xmlns:svg="http://www.w3.org/2000/svg"
   xmlns="http://www.w3.org/2000/svg"
   xmlns:sodipodi="http://sodipodi.sourceforge.net/DTD/sodipodi-0.dtd"
   xmlns:inkscape="http://www.inkscape.org/namespaces/inkscape"
   inkscape:export-ydpi="576"
   inkscape:export-xdpi="576"
   inkscape:export-filename="D:\Project Real\bulan puasa\export\filled line\png\3 - Handsaw.png"
   width="64pt"
   height="64pt"
   viewBox="0 0 22.577778 22.577778"
   version="1.1"
   id="svg831"
   inkscape:version="1.0 (4035a4fb49, 2020-05-01)"
   sodipodi:docname="4 - Avatar Construction Worker.svg">
  <defs
     id="defs825">
    <pattern
       id="EMFhbasepattern"
       patternUnits="userSpaceOnUse"
       width="6"
       height="6"
       x="0"
       y="0" />
    <pattern
       id="EMFhbasepattern-9"
       patternUnits="userSpaceOnUse"
       width="6"
       height="6"
       x="0"
       y="0" />
    <pattern
       id="EMFhbasepattern-0"
       patternUnits="userSpaceOnUse"
       width="6"
       height="6"
       x="0"
       y="0" />
    <pattern
       id="EMFhbasepattern-7"
       patternUnits="userSpaceOnUse"
       width="6"
       height="6"
       x="0"
       y="0" />
    <pattern
       id="EMFhbasepattern-2"
       patternUnits="userSpaceOnUse"
       width="6"
       height="6"
       x="0"
       y="0" />
    <pattern
       id="EMFhbasepattern-98"
       patternUnits="userSpaceOnUse"
       width="6"
       height="6"
       x="0"
       y="0" />
    <pattern
       id="EMFhbasepattern-6"
       patternUnits="userSpaceOnUse"
       width="6"
       height="6"
       x="0"
       y="0" />
    <pattern
       id="EMFhbasepattern-01"
       patternUnits="userSpaceOnUse"
       width="6"
       height="6"
       x="0"
       y="0" />
    <pattern
       id="EMFhbasepattern-07"
       patternUnits="userSpaceOnUse"
       width="6"
       height="6"
       x="0"
       y="0" />
    <pattern
       id="EMFhbasepattern-8"
       patternUnits="userSpaceOnUse"
       width="6"
       height="6"
       x="0"
       y="0" />
    <pattern
       id="EMFhbasepattern-4"
       patternUnits="userSpaceOnUse"
       width="6"
       height="6"
       x="0"
       y="0" />
    <pattern
       id="EMFhbasepattern-40"
       patternUnits="userSpaceOnUse"
       width="6"
       height="6"
       x="0"
       y="0" />
    <pattern
       id="EMFhbasepattern-08"
       patternUnits="userSpaceOnUse"
       width="6"
       height="6"
       x="0"
       y="0" />
    <pattern
       id="EMFhbasepattern-04"
       patternUnits="userSpaceOnUse"
       width="6"
       height="6"
       x="0"
       y="0" />
    <pattern
       id="EMFhbasepattern-014"
       patternUnits="userSpaceOnUse"
       width="6"
       height="6"
       x="0"
       y="0" />
    <pattern
       id="EMFhbasepattern-27"
       patternUnits="userSpaceOnUse"
       width="6"
       height="6"
       x="0"
       y="0" />
    <pattern
       id="EMFhbasepattern-09"
       patternUnits="userSpaceOnUse"
       width="6"
       height="6"
       x="0"
       y="0" />
    <pattern
       id="EMFhbasepattern-5"
       patternUnits="userSpaceOnUse"
       width="6"
       height="6"
       x="0"
       y="0" />
    <pattern
       id="EMFhbasepattern-018"
       patternUnits="userSpaceOnUse"
       width="6"
       height="6"
       x="0"
       y="0" />
  </defs>
  <sodipodi:namedview
     id="base"
     pagecolor="#ffffff"
     bordercolor="#666666"
     borderopacity="1.0"
     inkscape:pageopacity="0.0"
     inkscape:pageshadow="2"
     inkscape:zoom="6.2578125"
     inkscape:cx="42.666667"
     inkscape:cy="42.666667"
     inkscape:document-units="pt"
     inkscape:current-layer="layer1"
     showgrid="false"
     units="pt"
     inkscape:window-width="1366"
     inkscape:window-height="705"
     inkscape:window-x="-8"
     inkscape:window-y="-8"
     inkscape:window-maximized="1"
     inkscape:pagecheckerboard="true"
     inkscape:showpageshadow="false"
     inkscape:object-paths="true"
     inkscape:snap-intersection-paths="true"
     inkscape:snap-smooth-nodes="true"
     inkscape:snap-midpoints="true"
     showguides="true"
     inkscape:snap-bbox="true"
     inkscape:bbox-nodes="true"
     inkscape:snap-nodes="false"
     inkscape:snap-global="true"
     inkscape:document-rotation="0">
    <inkscape:grid
       type="xygrid"
       id="grid1378" />
    <sodipodi:guide
       position="0.97013831,21.607643"
       orientation="78.000048,0"
       id="guide1380"
       inkscape:locked="false" />
    <sodipodi:guide
       position="0.97013831,0.97013129"
       orientation="0,78.000005"
       id="guide1382"
       inkscape:locked="false" />
    <sodipodi:guide
       position="21.607639,0.97013129"
       orientation="-78.000048,0"
       id="guide1384"
       inkscape:locked="false" />
    <sodipodi:guide
       position="21.607639,21.607643"
       orientation="0,-78.000005"
       id="guide1386"
       inkscape:locked="false" />
  </sodipodi:namedview>
  <metadata
     id="metadata828">
    <rdf:RDF>
      <cc:Work
         rdf:about="">
        <dc:format>image/svg+xml</dc:format>
        <dc:type
           rdf:resource="http://purl.org/dc/dcmitype/StillImage" />
        <dc:title></dc:title>
      </cc:Work>
    </rdf:RDF>
  </metadata>
  <g
     inkscape:label="Icon"
     inkscape:groupmode="layer"
     id="layer1"
     transform="translate(0,-274.42223)">
    <g
       transform="matrix(1.258019,0,0,1.258019,-37.735768,-38.895606)"
       style="display:inline;stroke-width:0.794901"
       id="g1225">
      <g
         style="stroke-width:0.794901"
         id="g1202">
        <g
           style="stroke-width:0.794901"
           id="g1184">
          <path
             id="path1806"
             d="m 42.9375,258.03125 a 0.26460996,0.26460996 0 0 0 -0.263672,0.25391 l -0.248047,7.125 c -0.02672,0.16984 -0.06307,0.20635 -0.0957,0.22851 -0.03378,0.023 -0.114041,0.0415 -0.246094,0.0723 a 0.26460996,0.26460996 0 0 0 0.06055,0.52148 h 1.324219 c 0.582427,0 1.071253,-0.45606 1.111328,-1.03711 L 45,259.10352 c 0.03974,-0.57629 -0.424295,-1.07227 -1.001953,-1.07227 z"
             style="color:#000000;font-style:normal;font-variant:normal;font-weight:normal;font-stretch:normal;font-size:medium;line-height:normal;font-family:sans-serif;font-variant-ligatures:normal;font-variant-position:normal;font-variant-caps:normal;font-variant-numeric:normal;font-variant-alternates:normal;font-variant-east-asian:normal;font-feature-settings:normal;font-variation-settings:normal;text-indent:0;text-align:start;text-decoration:none;text-decoration-line:none;text-decoration-style:solid;text-decoration-color:#000000;letter-spacing:normal;word-spacing:normal;text-transform:none;writing-mode:lr-tb;direction:ltr;text-orientation:mixed;dominant-baseline:auto;baseline-shift:baseline;text-anchor:start;white-space:normal;shape-padding:0;shape-margin:0;inline-size:0;clip-rule:nonzero;display:inline;overflow:visible;visibility:visible;isolation:auto;mix-blend-mode:normal;color-interpolation:sRGB;color-interpolation-filters:linearRGB;solid-color:#000000;solid-opacity:1;vector-effect:none;fill:#ffccbc;fill-opacity:1;fill-rule:nonzero;stroke:none;stroke-width:0.420635;stroke-linecap:round;stroke-linejoin:round;stroke-miterlimit:4;stroke-dasharray:none;stroke-dashoffset:0;stroke-opacity:1;color-rendering:auto;image-rendering:auto;shape-rendering:auto;text-rendering:auto;enable-background:accumulate;stop-color:#000000" />
          <path
             id="path1778"
             d="m 33.941406,258.03125 c -0.577658,0 -1.041695,0.49598 -1.001953,1.07227 l 0.419922,6.09179 c 0.04008,0.58105 0.526948,1.03711 1.109375,1.03711 h 1.326172 a 0.26460996,0.26460996 0 0 0 0.0293,-0.52734 c -0.114569,-0.0126 -0.186984,-0.0423 -0.226563,-0.0762 -0.03883,-0.0333 -0.06997,-0.0803 -0.08398,-0.21094 l -0.248047,-7.13281 A 0.26460996,0.26460996 0 0 0 35,258.03125 Z"
             style="color:#000000;font-style:normal;font-variant:normal;font-weight:normal;font-stretch:normal;font-size:medium;line-height:normal;font-family:sans-serif;font-variant-ligatures:normal;font-variant-position:normal;font-variant-caps:normal;font-variant-numeric:normal;font-variant-alternates:normal;font-variant-east-asian:normal;font-feature-settings:normal;font-variation-settings:normal;text-indent:0;text-align:start;text-decoration:none;text-decoration-line:none;text-decoration-style:solid;text-decoration-color:#000000;letter-spacing:normal;word-spacing:normal;text-transform:none;writing-mode:lr-tb;direction:ltr;text-orientation:mixed;dominant-baseline:auto;baseline-shift:baseline;text-anchor:start;white-space:normal;shape-padding:0;shape-margin:0;inline-size:0;clip-rule:nonzero;display:inline;overflow:visible;visibility:visible;isolation:auto;mix-blend-mode:normal;color-interpolation:sRGB;color-interpolation-filters:linearRGB;solid-color:#000000;solid-opacity:1;vector-effect:none;fill:#ffccbc;fill-opacity:1;fill-rule:nonzero;stroke:none;stroke-width:0.420635;stroke-linecap:round;stroke-linejoin:round;stroke-miterlimit:4;stroke-dasharray:none;stroke-dashoffset:0;stroke-opacity:1;color-rendering:auto;image-rendering:auto;shape-rendering:auto;text-rendering:auto;enable-background:accumulate;stop-color:#000000" />
          <path
             id="path1128"
             style="color:#000000;font-style:normal;font-variant:normal;font-weight:normal;font-stretch:normal;font-size:medium;line-height:normal;font-family:sans-serif;font-variant-ligatures:normal;font-variant-position:normal;font-variant-caps:normal;font-variant-numeric:normal;font-variant-alternates:normal;font-variant-east-asian:normal;font-feature-settings:normal;font-variation-settings:normal;text-indent:0;text-align:start;text-decoration:none;text-decoration-line:none;text-decoration-style:solid;text-decoration-color:#000000;letter-spacing:normal;word-spacing:normal;text-transform:none;writing-mode:lr-tb;direction:ltr;text-orientation:mixed;dominant-baseline:auto;baseline-shift:baseline;text-anchor:start;white-space:normal;shape-padding:0;shape-margin:0;inline-size:0;clip-rule:nonzero;display:inline;overflow:visible;visibility:visible;isolation:auto;mix-blend-mode:normal;color-interpolation:sRGB;color-interpolation-filters:linearRGB;solid-color:#000000;solid-opacity:1;vector-effect:none;fill:#ffa185;fill-opacity:1;fill-rule:nonzero;stroke:none;stroke-width:1.5898;stroke-linecap:round;stroke-linejoin:round;stroke-miterlimit:4;stroke-dasharray:none;stroke-dashoffset:0;stroke-opacity:1;color-rendering:auto;image-rendering:auto;shape-rendering:auto;text-rendering:auto;enable-background:accumulate;stop-color:#000000"
             d="m 130.22461,-53.365234 c 0.0529,0.493757 0.1716,0.671016 0.31836,0.796875 0.14439,0.123672 0.41109,0.23093 0.81836,0.28125 h 3.92578 c 0.1438,-9.78e-4 0.28569,-0.03296 0.41601,-0.09375 l -0.0645,-1.837891 c -0.0773,-0.03006 -0.15795,-0.0504 -0.24023,-0.06055 -0.43302,-0.04762 -0.70588,-0.160936 -0.85547,-0.289062 -0.14676,-0.125859 -0.26541,-0.303118 -0.31836,-0.796875 l -0.32813,-9.427735 -0.0176,-0.490234 -0.41797,-12.027344 -8.76563,0.972656 0.54883,7.957032 c 2.50472,0 4.53263,2.059138 4.59767,4.597876 0.089,3.473539 0.25547,6.94558 0.38288,10.417752 z"
             transform="matrix(0.26458334,0,0,0.26458334,0,280.06666)"
             sodipodi:nodetypes="cccccccccccccccc" />
          <path
             id="path1764"
             d="m 33.912109,258.03125 c -0.320231,0.0356 -0.580915,0.15708 -0.746093,0.35547 -0.165179,0.19839 -0.220377,0.44574 -0.226563,0.6914 a 0.26460996,0.26460996 0 0 0 0,0.0254 l 0.146485,2.12109 a 0.26460996,0.26460996 0 0 0 0.263671,0.24609 h 1.761719 a 0.26460996,0.26460996 0 0 0 0.265625,-0.27539 l -0.111328,-2.91015 A 0.26460996,0.26460996 0 0 0 35,258.03125 h -1.058594 a 0.26460996,0.26460996 0 0 0 -0.0293,0 z"
             style="color:#000000;font-style:normal;font-variant:normal;font-weight:normal;font-stretch:normal;font-size:medium;line-height:normal;font-family:sans-serif;font-variant-ligatures:normal;font-variant-position:normal;font-variant-caps:normal;font-variant-numeric:normal;font-variant-alternates:normal;font-variant-east-asian:normal;font-feature-settings:normal;font-variation-settings:normal;text-indent:0;text-align:start;text-decoration:none;text-decoration-line:none;text-decoration-style:solid;text-decoration-color:#000000;letter-spacing:normal;word-spacing:normal;text-transform:none;writing-mode:lr-tb;direction:ltr;text-orientation:mixed;dominant-baseline:auto;baseline-shift:baseline;text-anchor:start;white-space:normal;shape-padding:0;shape-margin:0;inline-size:0;clip-rule:nonzero;display:inline;overflow:visible;visibility:visible;isolation:auto;mix-blend-mode:normal;color-interpolation:sRGB;color-interpolation-filters:linearRGB;solid-color:#000000;solid-opacity:1;vector-effect:none;fill:#2276bc;fill-opacity:1;fill-rule:nonzero;stroke:none;stroke-width:0.420635;stroke-linecap:round;stroke-linejoin:round;stroke-miterlimit:4;stroke-dasharray:none;stroke-dashoffset:0;stroke-opacity:1;color-rendering:auto;image-rendering:auto;shape-rendering:auto;text-rendering:auto;enable-background:accumulate;stop-color:#000000" />
          <path
             id="path1145"
             style="color:#000000;font-style:normal;font-variant:normal;font-weight:normal;font-stretch:normal;font-size:medium;line-height:normal;font-family:sans-serif;font-variant-ligatures:normal;font-variant-position:normal;font-variant-caps:normal;font-variant-numeric:normal;font-variant-alternates:normal;font-variant-east-asian:normal;font-feature-settings:normal;font-variation-settings:normal;text-indent:0;text-align:start;text-decoration:none;text-decoration-line:none;text-decoration-style:solid;text-decoration-color:#000000;letter-spacing:normal;word-spacing:normal;text-transform:none;writing-mode:lr-tb;direction:ltr;text-orientation:mixed;dominant-baseline:auto;baseline-shift:baseline;text-anchor:start;white-space:normal;shape-padding:0;shape-margin:0;inline-size:0;clip-rule:nonzero;display:inline;overflow:visible;visibility:visible;isolation:auto;mix-blend-mode:normal;color-interpolation:sRGB;color-interpolation-filters:linearRGB;solid-color:#000000;solid-opacity:1;vector-effect:none;fill:#ffa185;fill-opacity:1;fill-rule:nonzero;stroke:none;stroke-width:1.5898;stroke-linecap:round;stroke-linejoin:round;stroke-miterlimit:4;stroke-dasharray:none;stroke-dashoffset:0;stroke-opacity:1;color-rendering:auto;image-rendering:auto;shape-rendering:auto;text-rendering:auto;enable-background:accumulate;stop-color:#000000"
             d="m 162.2832,-83.283203 c -0.53512,0.0017 -0.97409,0.424313 -0.99609,0.958984 l -0.27539,7.916016 -0.0742,2.121094 -0.14453,4.146484 -0.44336,12.746094 c -0.10099,0.641915 -0.238,0.779527 -0.36133,0.863281 -0.12767,0.08693 -0.43254,0.157028 -0.93164,0.273438 -1.12663,0.276425 -0.95808,1.927621 0.20117,1.970703 h 1.03321 c 2.20128,0 4.0497,-1.723828 4.20117,-3.919922 l 0.52191,-7.574533 a 4.4867615,4.4867615 134.61155 0 1 4.30035,-4.359061 l 0.4043,-5.869141 -3.98828,-0.18164 0.34765,-5.039063 c 0.1502,-2.178104 -1.60383,-4.052734 -3.7871,-4.052734 z"
             transform="matrix(0.26458334,0,0,0.26458334,0,280.06666)" />
          <path
             id="path1792"
             d="m 42.9375,258.03125 a 0.26460996,0.26460996 0 0 0 -0.263672,0.25391 l -0.111328,2.91015 a 0.26460996,0.26460996 0 0 0 0.265625,0.27539 h 1.761719 a 0.26460996,0.26460996 0 0 0 0.263672,-0.24609 L 45,259.10352 a 0.26460996,0.26460996 0 0 0 0,-0.0254 c -0.0062,-0.24566 -0.06138,-0.49301 -0.226562,-0.6914 -0.165179,-0.19839 -0.425863,-0.31991 -0.746094,-0.35547 a 0.26460996,0.26460996 0 0 0 -0.0293,0 z"
             style="color:#000000;font-style:normal;font-variant:normal;font-weight:normal;font-stretch:normal;font-size:medium;line-height:normal;font-family:sans-serif;font-variant-ligatures:normal;font-variant-position:normal;font-variant-caps:normal;font-variant-numeric:normal;font-variant-alternates:normal;font-variant-east-asian:normal;font-feature-settings:normal;font-variation-settings:normal;text-indent:0;text-align:start;text-decoration:none;text-decoration-line:none;text-decoration-style:solid;text-decoration-color:#000000;letter-spacing:normal;word-spacing:normal;text-transform:none;writing-mode:lr-tb;direction:ltr;text-orientation:mixed;dominant-baseline:auto;baseline-shift:baseline;text-anchor:start;white-space:normal;shape-padding:0;shape-margin:0;inline-size:0;clip-rule:nonzero;display:inline;overflow:visible;visibility:visible;isolation:auto;mix-blend-mode:normal;color-interpolation:sRGB;color-interpolation-filters:linearRGB;solid-color:#000000;solid-opacity:1;vector-effect:none;fill:#2276bc;fill-opacity:1;fill-rule:nonzero;stroke:none;stroke-width:0.420635;stroke-linecap:round;stroke-linejoin:round;stroke-miterlimit:4;stroke-dasharray:none;stroke-dashoffset:0;stroke-opacity:1;color-rendering:auto;image-rendering:auto;shape-rendering:auto;text-rendering:auto;enable-background:accumulate;stop-color:#000000" />
          <path
             id="path1834"
             d="m 37.130859,257.76562 a 0.26460996,0.26460996 0 0 0 -0.242187,0.39844 l 1.851562,3.17383 a 0.26460996,0.26460996 0 0 0 0.457032,0 l 1.853515,-3.17383 a 0.26460996,0.26460996 0 0 0 -0.283203,-0.39258 c -1.202667,0.24835 -2.397246,0.26265 -3.59375,0 a 0.26460996,0.26460996 0 0 0 -0.04297,-0.006 z"
             style="color:#000000;font-style:normal;font-variant:normal;font-weight:normal;font-stretch:normal;font-size:medium;line-height:normal;font-family:sans-serif;font-variant-ligatures:normal;font-variant-position:normal;font-variant-caps:normal;font-variant-numeric:normal;font-variant-alternates:normal;font-variant-east-asian:normal;font-feature-settings:normal;font-variation-settings:normal;text-indent:0;text-align:start;text-decoration:none;text-decoration-line:none;text-decoration-style:solid;text-decoration-color:#000000;letter-spacing:normal;word-spacing:normal;text-transform:none;writing-mode:lr-tb;direction:ltr;text-orientation:mixed;dominant-baseline:auto;baseline-shift:baseline;text-anchor:start;white-space:normal;shape-padding:0;shape-margin:0;inline-size:0;clip-rule:nonzero;display:inline;overflow:visible;visibility:visible;isolation:auto;mix-blend-mode:normal;color-interpolation:sRGB;color-interpolation-filters:linearRGB;solid-color:#000000;solid-opacity:1;vector-effect:none;fill:#2276bc;fill-opacity:1;fill-rule:nonzero;stroke:none;stroke-width:0.420635;stroke-linecap:round;stroke-linejoin:round;stroke-miterlimit:4;stroke-dasharray:none;stroke-dashoffset:0;stroke-opacity:1;color-rendering:auto;image-rendering:auto;shape-rendering:auto;text-rendering:auto;enable-background:accumulate;stop-color:#000000" />
          <path
             id="path1092"
             style="color:#000000;font-style:normal;font-variant:normal;font-weight:normal;font-stretch:normal;font-size:medium;line-height:normal;font-family:sans-serif;font-variant-ligatures:normal;font-variant-position:normal;font-variant-caps:normal;font-variant-numeric:normal;font-variant-alternates:normal;font-variant-east-asian:normal;font-feature-settings:normal;font-variation-settings:normal;text-indent:0;text-align:start;text-decoration:none;text-decoration-line:none;text-decoration-style:solid;text-decoration-color:#000000;letter-spacing:normal;word-spacing:normal;text-transform:none;writing-mode:lr-tb;direction:ltr;text-orientation:mixed;dominant-baseline:auto;baseline-shift:baseline;text-anchor:start;white-space:normal;shape-padding:0;shape-margin:0;inline-size:0;clip-rule:nonzero;display:inline;overflow:visible;visibility:visible;isolation:auto;mix-blend-mode:normal;color-interpolation:sRGB;color-interpolation-filters:linearRGB;solid-color:#000000;solid-opacity:1;vector-effect:none;fill:#1d5c87;fill-opacity:1;fill-rule:nonzero;stroke:none;stroke-width:0.420635;stroke-linecap:round;stroke-linejoin:round;stroke-miterlimit:4;stroke-dasharray:none;stroke-dashoffset:0;stroke-opacity:1;color-rendering:auto;image-rendering:auto;shape-rendering:auto;text-rendering:auto;enable-background:accumulate;stop-color:#000000"
             d="m 33.91938,258.0308 a 0.26460996,0.26460996 0 0 0 -0.0072,5.1e-4 c -0.320233,0.0356 -0.58103,0.15715 -0.74621,0.35554 -0.165179,0.19839 -0.220157,0.44577 -0.226343,0.69143 a 0.26460996,0.26460996 0 0 0 -5.16e-4,0.0114 h 1.002522 a 0.26460996,0.26460996 0 0 1 0.265618,0.25373 l 0.08165,2.12752 h 0.82269 a 0.26460996,0.26460996 0 0 0 0.265615,-0.27544 l -0.111619,-2.91042 a 0.26460996,0.26460996 0 0 0 -0.265618,-0.25373 h -1.058334 a 0.26460996,0.26460996 0 0 0 -0.02222,-5.1e-4 z" />
          <path
             id="path1097"
             style="color:#000000;font-style:normal;font-variant:normal;font-weight:normal;font-stretch:normal;font-size:medium;line-height:normal;font-family:sans-serif;font-variant-ligatures:normal;font-variant-position:normal;font-variant-caps:normal;font-variant-numeric:normal;font-variant-alternates:normal;font-variant-east-asian:normal;font-feature-settings:normal;font-variation-settings:normal;text-indent:0;text-align:start;text-decoration:none;text-decoration-line:none;text-decoration-style:solid;text-decoration-color:#000000;letter-spacing:normal;word-spacing:normal;text-transform:none;writing-mode:lr-tb;direction:ltr;text-orientation:mixed;dominant-baseline:auto;baseline-shift:baseline;text-anchor:start;white-space:normal;shape-padding:0;shape-margin:0;inline-size:0;clip-rule:nonzero;display:inline;overflow:visible;visibility:visible;isolation:auto;mix-blend-mode:normal;color-interpolation:sRGB;color-interpolation-filters:linearRGB;solid-color:#000000;solid-opacity:1;vector-effect:none;fill:#1d5c87;fill-opacity:1;fill-rule:nonzero;stroke:none;stroke-width:0.420635;stroke-linecap:round;stroke-linejoin:round;stroke-miterlimit:4;stroke-dasharray:none;stroke-dashoffset:0;stroke-opacity:1;color-rendering:auto;image-rendering:auto;shape-rendering:auto;text-rendering:auto;enable-background:accumulate;stop-color:#000000"
             d="m 44.005065,258.0308 a 0.26460996,0.26460996 0 0 0 -0.0072,5.1e-4 h -1.060403 a 0.26460996,0.26460996 0 0 0 -0.263549,0.25373 l -0.03101,0.80461 h 0.296595 a 0.26460996,0.26460996 0 0 1 0.02945,0 c 0.320233,0.0356 0.58103,0.15714 0.746209,0.35553 0.165182,0.19839 0.220142,0.44577 0.226341,0.69143 a 0.26460996,0.26460996 0 0 1 0,0.0253 l -0.09043,1.30897 h 0.738973 a 0.26460996,0.26460996 0 0 0 0.263549,-0.2465 l 0.146243,-2.1208 a 0.26460996,0.26460996 0 0 0 0,-0.0253 c -0.0062,-0.24566 -0.06116,-0.49304 -0.22634,-0.69143 -0.16518,-0.19839 -0.425977,-0.31998 -0.74621,-0.35554 a 0.26460996,0.26460996 0 0 0 -0.02222,-5.1e-4 z" />
          <path
             id="path1820"
             d="m 35.529297,257.50195 c -0.435308,0 -0.789426,0.3657 -0.775391,0.80078 l 0.230469,7.14454 c 0.01402,0.43456 0.375754,0.78515 0.810547,0.78515 h 6.349609 c 0.434793,0 0.796529,-0.35059 0.810547,-0.78515 l 0.230469,-7.14454 c 0.01403,-0.43508 -0.340083,-0.80078 -0.775391,-0.80078 h -1.324218 a 0.26460996,0.26460996 0 0 0 -0.22461,0.125 l -1.892578,3.07227 -1.890625,-3.07227 a 0.26460996,0.26460996 0 0 0 -0.224609,-0.125 z"
             style="color:#000000;font-style:normal;font-variant:normal;font-weight:normal;font-stretch:normal;font-size:medium;line-height:normal;font-family:sans-serif;font-variant-ligatures:normal;font-variant-position:normal;font-variant-caps:normal;font-variant-numeric:normal;font-variant-alternates:normal;font-variant-east-asian:normal;font-feature-settings:normal;font-variation-settings:normal;text-indent:0;text-align:start;text-decoration:none;text-decoration-line:none;text-decoration-style:solid;text-decoration-color:#000000;letter-spacing:normal;word-spacing:normal;text-transform:none;writing-mode:lr-tb;direction:ltr;text-orientation:mixed;dominant-baseline:auto;baseline-shift:baseline;text-anchor:start;white-space:normal;shape-padding:0;shape-margin:0;inline-size:0;clip-rule:nonzero;display:inline;overflow:visible;visibility:visible;isolation:auto;mix-blend-mode:normal;color-interpolation:sRGB;color-interpolation-filters:linearRGB;solid-color:#000000;solid-opacity:1;vector-effect:none;fill:#fec872;fill-opacity:1;fill-rule:nonzero;stroke:none;stroke-width:0.420635;stroke-linecap:round;stroke-linejoin:round;stroke-miterlimit:4;stroke-dasharray:none;stroke-dashoffset:0;stroke-opacity:1;color-rendering:auto;image-rendering:auto;shape-rendering:auto;text-rendering:auto;enable-background:accumulate;stop-color:#000000" />
          <path
             id="path1848"
             d="m 41.085938,260.14648 c -0.289115,0 -0.529297,0.24019 -0.529297,0.5293 v 0.5293 c 0,0.28911 0.240182,0.52929 0.529297,0.5293 h 0.529296 c 0.289115,-10e-6 0.529297,-0.24019 0.529297,-0.5293 v -0.5293 c 0,-0.28911 -0.240182,-0.5293 -0.529297,-0.5293 z"
             style="color:#000000;font-style:normal;font-variant:normal;font-weight:normal;font-stretch:normal;font-size:medium;line-height:normal;font-family:sans-serif;font-variant-ligatures:normal;font-variant-position:normal;font-variant-caps:normal;font-variant-numeric:normal;font-variant-alternates:normal;font-variant-east-asian:normal;font-feature-settings:normal;font-variation-settings:normal;text-indent:0;text-align:start;text-decoration:none;text-decoration-line:none;text-decoration-style:solid;text-decoration-color:#000000;letter-spacing:normal;word-spacing:normal;text-transform:none;writing-mode:lr-tb;direction:ltr;text-orientation:mixed;dominant-baseline:auto;baseline-shift:baseline;text-anchor:start;white-space:normal;shape-padding:0;shape-margin:0;inline-size:0;clip-rule:nonzero;display:inline;overflow:visible;visibility:visible;isolation:auto;mix-blend-mode:normal;color-interpolation:sRGB;color-interpolation-filters:linearRGB;solid-color:#000000;solid-opacity:1;vector-effect:none;fill:#50b86b;fill-opacity:1;fill-rule:nonzero;stroke:none;stroke-width:0.420635;stroke-linecap:round;stroke-linejoin:round;stroke-miterlimit:4;stroke-dasharray:none;stroke-dashoffset:0;stroke-opacity:1;color-rendering:auto;image-rendering:auto;shape-rendering:auto;text-rendering:auto;enable-background:accumulate;stop-color:#000000" />
          <path
             id="path1750"
             d="m 38.457031,250.14844 a 0.26460996,0.26460996 0 0 0 -0.05859,0.006 c -1.187683,0.26109 -2.074219,1.32136 -2.074219,2.58398 a 0.26460996,0.26460996 0 0 0 0.263672,0.26563 h 4.763671 a 0.26460996,0.26460996 0 0 0 0.263672,-0.26563 c 0,-1.2532 -0.8744,-2.3072 -2.048828,-2.57812 a 0.26460996,0.26460996 0 0 0 -0.05859,-0.006 z"
             style="color:#000000;font-style:normal;font-variant:normal;font-weight:normal;font-stretch:normal;font-size:medium;line-height:normal;font-family:sans-serif;font-variant-ligatures:normal;font-variant-position:normal;font-variant-caps:normal;font-variant-numeric:normal;font-variant-alternates:normal;font-variant-east-asian:normal;font-feature-settings:normal;font-variation-settings:normal;text-indent:0;text-align:start;text-decoration:none;text-decoration-line:none;text-decoration-style:solid;text-decoration-color:#000000;letter-spacing:normal;word-spacing:normal;text-transform:none;writing-mode:lr-tb;direction:ltr;text-orientation:mixed;dominant-baseline:auto;baseline-shift:baseline;text-anchor:start;white-space:normal;shape-padding:0;shape-margin:0;inline-size:0;clip-rule:nonzero;display:inline;overflow:visible;visibility:visible;isolation:auto;mix-blend-mode:normal;color-interpolation:sRGB;color-interpolation-filters:linearRGB;solid-color:#000000;solid-opacity:1;vector-effect:none;fill:#fec872;fill-opacity:1;fill-rule:nonzero;stroke:none;stroke-width:0.420635;stroke-linecap:round;stroke-linejoin:round;stroke-miterlimit:4;stroke-dasharray:none;stroke-dashoffset:0;stroke-opacity:1;color-rendering:auto;image-rendering:auto;shape-rendering:auto;text-rendering:auto;enable-background:accumulate;stop-color:#000000" />
          <path
             id="path1708"
             d="m 36.853516,253.5332 a 0.26460996,0.26460996 0 0 0 -0.265625,0.26368 c 2e-6,0.65599 0.24932,1.47214 0.65625,2.16015 0.406929,0.68801 0.988768,1.2793 1.724609,1.2793 0.735841,0 1.31768,-0.59129 1.724609,-1.2793 0.40693,-0.68801 0.658201,-1.50416 0.658203,-2.16015 a 0.26460996,0.26460996 0 0 0 -0.265624,-0.26368 z"
             style="color:#000000;font-style:normal;font-variant:normal;font-weight:normal;font-stretch:normal;font-size:medium;line-height:normal;font-family:sans-serif;font-variant-ligatures:normal;font-variant-position:normal;font-variant-caps:normal;font-variant-numeric:normal;font-variant-alternates:normal;font-variant-east-asian:normal;font-feature-settings:normal;font-variation-settings:normal;text-indent:0;text-align:start;text-decoration:none;text-decoration-line:none;text-decoration-style:solid;text-decoration-color:#000000;letter-spacing:normal;word-spacing:normal;text-transform:none;writing-mode:lr-tb;direction:ltr;text-orientation:mixed;dominant-baseline:auto;baseline-shift:baseline;text-anchor:start;white-space:normal;shape-padding:0;shape-margin:0;inline-size:0;clip-rule:nonzero;display:inline;overflow:visible;visibility:visible;isolation:auto;mix-blend-mode:normal;color-interpolation:sRGB;color-interpolation-filters:linearRGB;solid-color:#000000;solid-opacity:1;vector-effect:none;fill:#ffccbc;fill-opacity:1;fill-rule:nonzero;stroke:none;stroke-width:0.420635;stroke-linecap:round;stroke-linejoin:round;stroke-miterlimit:4;stroke-dasharray:none;stroke-dashoffset:0;stroke-opacity:1;color-rendering:auto;image-rendering:auto;shape-rendering:auto;text-rendering:auto;enable-background:accumulate;stop-color:#000000" />
          <path
             id="path1075"
             style="color:#000000;font-style:normal;font-variant:normal;font-weight:normal;font-stretch:normal;font-size:medium;line-height:normal;font-family:sans-serif;font-variant-ligatures:normal;font-variant-position:normal;font-variant-caps:normal;font-variant-numeric:normal;font-variant-alternates:normal;font-variant-east-asian:normal;font-feature-settings:normal;font-variation-settings:normal;text-indent:0;text-align:start;text-decoration:none;text-decoration-line:none;text-decoration-style:solid;text-decoration-color:#000000;letter-spacing:normal;word-spacing:normal;text-transform:none;writing-mode:lr-tb;direction:ltr;text-orientation:mixed;dominant-baseline:auto;baseline-shift:baseline;text-anchor:start;white-space:normal;shape-padding:0;shape-margin:0;inline-size:0;clip-rule:nonzero;display:inline;overflow:visible;visibility:visible;isolation:auto;mix-blend-mode:normal;color-interpolation:sRGB;color-interpolation-filters:linearRGB;solid-color:#000000;solid-opacity:1;vector-effect:none;fill:#ca7d02;fill-opacity:1;fill-rule:nonzero;stroke:none;stroke-width:0.420635;stroke-linecap:round;stroke-linejoin:round;stroke-miterlimit:4;stroke-dasharray:none;stroke-dashoffset:0;stroke-opacity:1;color-rendering:auto;image-rendering:auto;shape-rendering:auto;text-rendering:auto;enable-background:accumulate;stop-color:#000000"
             d="m 38.457085,250.14859 c -0.01963,-1.7e-4 -0.03921,0.002 -0.05839,0.006 -0.289787,0.0637 -0.561242,0.17589 -0.806669,0.32608 v 0.50931 c 0,0.49758 -0.403365,0.90094 -0.900941,0.90094 -0.07691,-0.008 -0.1613,0.008 -0.22974,0.0129 -0.08754,0.2629 -0.136943,0.54318 -0.136943,0.83509 -5.59e-4,0.14612 0.11743,0.26504 0.263551,0.26562 h 4.763532 c 0.146122,-5.8e-4 0.264111,-0.1195 0.263552,-0.26562 0,-0.29187 -0.04882,-0.5722 -0.136427,-0.83509 -0.08115,-0.017 -0.147017,-0.009 -0.230256,-0.0129 -0.497576,0 -0.900941,-0.40336 -0.900941,-0.90094 v -0.50828 c -0.238324,-0.14595 -0.50051,-0.25624 -0.780831,-0.32091 -0.01935,-0.004 -0.03911,-0.006 -0.05891,-0.006 z"
             sodipodi:nodetypes="cccsccccccccscccc" />
          <path
             id="path1082"
             style="fill:#ffa185;fill-opacity:1;stroke-width:1.5898;stroke-linecap:round;stroke-linejoin:round"
             d="m 139.28906,-100.2832 a 1.0001006,1.0001006 0 0 0 -1.0039,0.996091 c 0,0.834043 0.11437,1.738403 0.31445,2.667968 l 17.38281,-0.04492 c 0.19494,-0.913644 0.30664,-1.802508 0.30664,-2.623047 a 1.0001006,1.0001006 0 0 0 -1.0039,-0.996092 z"
             transform="matrix(0.26458334,0,0,0.26458334,0,280.06666)" />
          <path
             id="path1736"
             style="color:#000000;font-style:normal;font-variant:normal;font-weight:normal;font-stretch:normal;font-size:medium;line-height:normal;font-family:sans-serif;font-variant-ligatures:normal;font-variant-position:normal;font-variant-caps:normal;font-variant-numeric:normal;font-variant-alternates:normal;font-variant-east-asian:normal;font-feature-settings:normal;font-variation-settings:normal;text-indent:0;text-align:start;text-decoration:none;text-decoration-line:none;text-decoration-style:solid;text-decoration-color:#000000;letter-spacing:normal;word-spacing:normal;text-transform:none;writing-mode:lr-tb;direction:ltr;text-orientation:mixed;dominant-baseline:auto;baseline-shift:baseline;text-anchor:start;white-space:normal;shape-padding:0;shape-margin:0;inline-size:0;clip-rule:nonzero;display:inline;overflow:visible;visibility:visible;isolation:auto;mix-blend-mode:normal;color-interpolation:sRGB;color-interpolation-filters:linearRGB;solid-color:#000000;solid-opacity:1;vector-effect:none;fill:#fca311;fill-opacity:1;fill-rule:nonzero;stroke:none;stroke-width:0.420635;stroke-linecap:round;stroke-linejoin:round;stroke-miterlimit:4;stroke-dasharray:none;stroke-dashoffset:0;stroke-opacity:1;color-rendering:auto;image-rendering:auto;shape-rendering:auto;text-rendering:auto;enable-background:accumulate;stop-color:#000000"
             d="m 38.705132,249.82819 c -0.289115,0 -0.529164,0.24006 -0.529167,0.52917 v 2.11718 H 36.58795 c -0.289119,0 -0.529172,0.24005 -0.529167,0.52917 v 0.52969 c -5e-6,0.28912 0.240048,0.52916 0.529167,0.52916 h 4.763532 c 0.289115,0 0.529171,-0.24004 0.529166,-0.52916 v -0.52969 c 5e-6,-0.28912 -0.240051,-0.52917 -0.529166,-0.52917 h -1.588016 v -2.11718 c -6e-6,-0.28911 -0.240052,-0.52917 -0.529167,-0.52917 z" />
          <path
             id="path1087"
             style="color:#000000;font-style:normal;font-variant:normal;font-weight:normal;font-stretch:normal;font-size:medium;line-height:normal;font-family:sans-serif;font-variant-ligatures:normal;font-variant-position:normal;font-variant-caps:normal;font-variant-numeric:normal;font-variant-alternates:normal;font-variant-east-asian:normal;font-feature-settings:normal;font-variation-settings:normal;text-indent:0;text-align:start;text-decoration:none;text-decoration-line:none;text-decoration-style:solid;text-decoration-color:#000000;letter-spacing:normal;word-spacing:normal;text-transform:none;writing-mode:lr-tb;direction:ltr;text-orientation:mixed;dominant-baseline:auto;baseline-shift:baseline;text-anchor:start;white-space:normal;shape-padding:0;shape-margin:0;inline-size:0;clip-rule:nonzero;display:inline;overflow:visible;visibility:visible;isolation:auto;mix-blend-mode:normal;color-interpolation:sRGB;color-interpolation-filters:linearRGB;solid-color:#000000;solid-opacity:1;vector-effect:none;fill:#349951;fill-opacity:1;fill-rule:nonzero;stroke:none;stroke-width:0.420635;stroke-linecap:round;stroke-linejoin:round;stroke-miterlimit:4;stroke-dasharray:none;stroke-dashoffset:0;stroke-opacity:1;color-rendering:auto;image-rendering:auto;shape-rendering:auto;text-rendering:auto;enable-background:accumulate;stop-color:#000000"
             d="m 41.085863,260.14643 c -0.289115,0 -0.529167,0.24005 -0.529167,0.52917 h 0.529167 c 0.289113,0 0.529683,0.24005 0.529683,0.52916 v 0.52969 c 0.28888,-3e-4 0.529166,-0.24024 0.529166,-0.52917 v -0.52968 c 0,-0.28912 -0.240569,-0.52917 -0.529682,-0.52917 z" />
          <path
             id="path1108"
             style="color:#000000;font-style:normal;font-variant:normal;font-weight:normal;font-stretch:normal;font-size:medium;line-height:normal;font-family:sans-serif;font-variant-ligatures:normal;font-variant-position:normal;font-variant-caps:normal;font-variant-numeric:normal;font-variant-alternates:normal;font-variant-east-asian:normal;font-feature-settings:normal;font-variation-settings:normal;text-indent:0;text-align:start;text-decoration:none;text-decoration-line:none;text-decoration-style:solid;text-decoration-color:#000000;letter-spacing:normal;word-spacing:normal;text-transform:none;writing-mode:lr-tb;direction:ltr;text-orientation:mixed;dominant-baseline:auto;baseline-shift:baseline;text-anchor:start;white-space:normal;shape-padding:0;shape-margin:0;inline-size:0;clip-rule:nonzero;display:inline;overflow:visible;visibility:visible;isolation:auto;mix-blend-mode:normal;color-interpolation:sRGB;color-interpolation-filters:linearRGB;solid-color:#000000;solid-opacity:1;vector-effect:none;fill:#1d5c87;fill-opacity:1;fill-rule:nonzero;stroke:none;stroke-width:0.420635;stroke-linecap:round;stroke-linejoin:round;stroke-miterlimit:4;stroke-dasharray:none;stroke-dashoffset:0;stroke-opacity:1;color-rendering:auto;image-rendering:auto;shape-rendering:auto;text-rendering:auto;enable-background:accumulate;stop-color:#000000"
             d="m 40.304001,257.8551 c -0.891585,0.13919 -1.779352,0.14667 -2.667537,0.004 l 1.103807,1.89136 a 0.26460996,0.26460996 0 0 0 0.456819,0 z" />
        </g>
        <path
           sodipodi:nodetypes="ssccssccsccssscsccccccccccccccccccccsssccccccccccccscsccsccsccscscccccscccccscscccccsccccsccccscsccccscsccssssccccccccccccccccccccccccccccccccccccccccccscccccsccc"
           d="m 41.880647,253.53236 v -0.52916 c 3e-6,-0.19644 -0.112112,-0.36814 -0.273883,-0.45941 -0.08042,-1.10563 -0.841214,-2.02487 -1.868104,-2.33681 -0.066,-0.21727 -0.267486,-0.3793 -0.504362,-0.3793 h -0.529167 c -0.237276,0 -0.439235,0.16251 -0.504878,0.38034 -1.02635,0.31155 -1.78639,1.23092 -1.867588,2.33577 -0.161771,0.0913 -0.273886,0.26297 -0.273883,0.45941 v 0.52916 c -6e-6,0.28912 0.240051,0.52969 0.535625,0.52969 0.06181,0.60229 0.296151,1.29699 0.64983,1.89497 0.406929,0.68801 0.988602,1.27951 1.724443,1.27951 0.735841,0 1.317514,-0.5915 1.724443,-1.27951 0.353682,-0.59798 0.589706,-1.29268 0.651896,-1.89497 0.295577,0 0.535633,-0.24057 0.535628,-0.52969 z m -3.175516,-3.17551 h 0.529167 v 2.11718 h -0.529167 z m 1.058333,0.41909 c 0.697019,0.28207 1.208228,0.92386 1.304314,1.69809 h -1.304314 z m -1.5875,5.3e-4 v 1.69757 h -1.303795 c 0.09677,-0.77341 0.607359,-1.41555 1.303795,-1.69757 z m -1.588016,2.22674 h 4.763532 v 0.52916 h -4.763532 z m 0.611331,1.05936 h 3.540871 c -0.05258,0.49607 -0.193085,1.10279 -0.50178,1.62471 -0.359153,0.60723 -0.83653,1.01958 -1.26969,1.01958 -0.433157,0 -0.908468,-0.41235 -1.267622,-1.01958 -0.308694,-0.52192 -0.449196,-1.12864 -0.501779,-1.62471 z m 2.351278,1.16376 c -0.244981,0.33176 -0.437031,0.42631 -0.583944,0.42219 -0.146912,-0.004 -0.345609,-0.1175 -0.57981,-0.42374 -0.08825,-0.11672 -0.25449,-0.13965 -0.371036,-0.0512 -0.116721,0.0883 -0.139642,0.25449 -0.05116,0.37103 0.282504,0.3694 0.606592,0.62233 0.988571,0.63304 0.381979,0.0107 0.72545,-0.23345 1.023194,-0.63665 0.08595,-0.11754 0.06078,-0.28244 -0.05633,-0.36897 -0.156589,-0.0952 -0.216223,-0.0628 -0.369488,0.0543 z m -2.472262,2.40088 c -0.04827,-0.0778 -0.133278,-0.12504 -0.224792,-0.12505 h -1.324406 c -0.340017,0 -0.627542,0.22414 -0.731737,0.52916 h -0.855763 c -0.577657,0 -1.041747,0.496 -1.002007,1.07229 l 0.419614,6.09162 c 0.04007,0.58105 0.527065,1.03714 1.109493,1.03714 h 1.326017 6.35 1.323952 c 0.582427,0 1.071483,-0.45609 1.111559,-1.03714 l 0.419611,-6.09162 c 0.03974,-0.57629 -0.424347,-1.07229 -1.002004,-1.07229 h -0.855763 c -0.104195,-0.30502 -0.391721,-0.52916 -0.731737,-0.52916 h -1.324467 c -0.09151,10e-6 -0.176527,0.0473 -0.224793,0.12505 l -0.09303,0.14702 c -1.203195,0.24551 -2.397603,0.25981 -3.594901,0.001 z m -1.549198,0.40411 h 1.176157 l 1.999877,3.24942 v 0.98288 h -3.293856 l -0.128156,-3.97857 c -0.0046,-0.14322 0.102684,-0.25373 0.245978,-0.25373 z m 5.705078,0 h 1.176157 c 0.143293,0 0.250598,0.11051 0.245978,0.25373 l -0.128156,3.97857 h -3.293856 v -0.98288 z m -0.834573,0.34417 h 5.29e-4 l -1.431438,2.32389 -1.426787,-2.31872 c 0.953553,0.15376 1.90762,0.14447 2.857709,-0.005 z m -6.458005,0.185 h 0.820623 l 0.077,2.38073 h -1.243335 l -0.12919,-1.87482 c -0.01918,-0.27815 0.196098,-0.50591 0.474906,-0.50591 z m 9.235612,0 h 0.820623 c 0.278808,0 0.494089,0.22776 0.474906,0.50591 l -0.129709,1.87482 h -1.242817 z m -2.091344,1.58595 c -0.289115,0 -0.529167,0.24006 -0.529167,0.52917 v 0.52968 c 0,0.28911 0.240052,0.52916 0.529167,0.52917 h 0.529167 c 0.289113,-1e-5 0.529682,-0.24006 0.529682,-0.52917 v -0.52968 c 0,-0.28911 -0.240569,-0.52917 -0.529682,-0.52917 z m 0,0.52917 h 0.529167 v 0.52968 h -0.529167 z m -7.453294,0.7953 h 1.223698 l 0.128159,3.9765 c 0.0029,0.0902 0.02384,0.17521 0.05426,0.2558 h -0.569992 c -0.309338,10e-6 -0.560591,-0.23452 -0.581877,-0.54312 z m 9.450586,0 h 1.223182 l -0.255799,3.68918 c -0.02127,0.3086 -0.272537,0.54313 -0.581874,0.54312 H 42.90074 c 0.03042,-0.0806 0.05135,-0.16559 0.05426,-0.2558 z m -7.65483,1.32188 h 3.276804 v 0.52968 h -3.259749 z m 3.805971,0 h 3.276803 l -0.01707,0.52968 h -3.259748 z m -3.771863,1.05885 h 3.242696 v 0.79272 h -3.216857 z m 3.771863,0 h 3.242696 l -0.02585,0.79272 h -3.216857 z m -3.728972,1.3224 h 3.199805 v 0.52917 h -2.910417 c -0.154844,0 -0.276127,-0.11653 -0.281119,-0.2713 z m 3.728972,0 h 3.199804 l -0.0083,0.25787 c -0.005,0.15477 -0.126275,0.2713 -0.281119,0.2713 h -2.910412 z"
           style="color:#000000;font-style:normal;font-variant:normal;font-weight:normal;font-stretch:normal;font-size:medium;line-height:normal;font-family:sans-serif;font-variant-ligatures:normal;font-variant-position:normal;font-variant-caps:normal;font-variant-numeric:normal;font-variant-alternates:normal;font-variant-east-asian:normal;font-feature-settings:normal;font-variation-settings:normal;text-indent:0;text-align:start;text-decoration:none;text-decoration-line:none;text-decoration-style:solid;text-decoration-color:#000000;letter-spacing:normal;word-spacing:normal;text-transform:none;writing-mode:lr-tb;direction:ltr;text-orientation:mixed;dominant-baseline:auto;baseline-shift:baseline;text-anchor:start;white-space:normal;shape-padding:0;shape-margin:0;inline-size:0;clip-rule:nonzero;display:inline;overflow:visible;visibility:visible;isolation:auto;mix-blend-mode:normal;color-interpolation:sRGB;color-interpolation-filters:linearRGB;solid-color:#000000;solid-opacity:1;vector-effect:none;fill:#000000;fill-opacity:1;fill-rule:nonzero;stroke:none;stroke-width:0.420635;stroke-linecap:round;stroke-linejoin:round;stroke-miterlimit:4;stroke-dasharray:none;stroke-dashoffset:0;stroke-opacity:1;color-rendering:auto;image-rendering:auto;shape-rendering:auto;text-rendering:auto;enable-background:accumulate;stop-color:#000000"
           id="path1338" />
      </g>
    </g>
  </g>
</svg>
